<svg width="1440" height="900" viewBox="0 0 1440 900" fill="none" xmlns="http://www.w3.org/2000/svg">
<mask id="mask0" mask-type="alpha" maskUnits="userSpaceOnUse" x="-270" y="359" width="874" height="874">
<rect x="-270" y="1048.01" width="713.311" height="713.311" rx="224" transform="rotate(-75 -270 1048.01)" fill="#C4C4C4"/>
</mask>
<g mask="url(#mask0)">
<g filter="url(#filter0_f)">
<circle cx="-12.9668" cy="760.804" r="491.778" transform="rotate(-110.3 -12.9668 760.804)" fill="#62D9FF"/>
</g>
<g filter="url(#filter1_f)">
<circle cx="635.771" cy="932.943" r="491.778" transform="rotate(-110.3 635.771 932.943)" fill="#FF7575"/>
</g>
<g filter="url(#filter2_f)">
<circle cx="381.939" cy="246.759" r="491.778" transform="rotate(-110.3 381.939 246.759)" fill="#6F57FF"/>
</g>
</g>
<rect x="-82.9432" y="390" width="673.906" height="664.777" rx="220" transform="rotate(15 -82.9432 390)" fill="#080020"/>
<mask id="mask1" mask-type="alpha" maskUnits="userSpaceOnUse" x="791" y="-459" width="964" height="964">
<rect x="1754.2" y="173.385" width="713.311" height="713.311" rx="224" transform="rotate(152.369 1754.2 173.385)" fill="#C4C4C4"/>
</mask>
<g mask="url(#mask1)">
<g filter="url(#filter3_f)">
<circle cx="1368.82" cy="178.791" r="491.778" transform="rotate(117.069 1368.82 178.791)" fill="#62D9FF"/>
</g>
<g filter="url(#filter4_f)">
<circle cx="1056.09" cy="-415.09" r="491.778" transform="rotate(117.069 1056.09 -415.09)" fill="#FF7575"/>
</g>
<g filter="url(#filter5_f)">
<circle cx="723.157" cy="236.395" r="491.778" transform="rotate(117.069 723.157 236.395)" fill="#6F57FF"/>
</g>
</g>
<path d="M1327 357.776C1219.35 414.125 1086.41 372.542 1030.06 264.896L921.576 57.6661C865.227 -49.9796 906.81 -182.924 1014.46 -239.274L1213.6 -343.519C1321.24 -399.869 1454.19 -358.285 1510.54 -250.64L1619.02 -43.4098C1675.37 64.2359 1633.78 197.18 1526.14 253.53L1327 357.776Z" fill="#080020"/>
<defs>
<filter id="filter0_f" x="-944.817" y="-171.046" width="1863.7" height="1863.7" filterUnits="userSpaceOnUse" color-interpolation-filters="sRGB">
<feFlood flood-opacity="0" result="BackgroundImageFix"/>
<feBlend mode="normal" in="SourceGraphic" in2="BackgroundImageFix" result="shape"/>
<feGaussianBlur stdDeviation="150" result="effect1_foregroundBlur"/>
</filter>
<filter id="filter1_f" x="-296.079" y="1.09279" width="1863.7" height="1863.7" filterUnits="userSpaceOnUse" color-interpolation-filters="sRGB">
<feFlood flood-opacity="0" result="BackgroundImageFix"/>
<feBlend mode="normal" in="SourceGraphic" in2="BackgroundImageFix" result="shape"/>
<feGaussianBlur stdDeviation="150" result="effect1_foregroundBlur"/>
</filter>
<filter id="filter2_f" x="-549.911" y="-685.091" width="1863.7" height="1863.7" filterUnits="userSpaceOnUse" color-interpolation-filters="sRGB">
<feFlood flood-opacity="0" result="BackgroundImageFix"/>
<feBlend mode="normal" in="SourceGraphic" in2="BackgroundImageFix" result="shape"/>
<feGaussianBlur stdDeviation="150" result="effect1_foregroundBlur"/>
</filter>
<filter id="filter3_f" x="407.118" y="-782.906" width="1923.39" height="1923.39" filterUnits="userSpaceOnUse" color-interpolation-filters="sRGB">
<feFlood flood-opacity="0" result="BackgroundImageFix"/>
<feBlend mode="normal" in="SourceGraphic" in2="BackgroundImageFix" result="shape"/>
<feGaussianBlur stdDeviation="150" result="effect1_foregroundBlur"/>
</filter>
<filter id="filter4_f" x="94.3936" y="-1376.79" width="1923.39" height="1923.39" filterUnits="userSpaceOnUse" color-interpolation-filters="sRGB">
<feFlood flood-opacity="0" result="BackgroundImageFix"/>
<feBlend mode="normal" in="SourceGraphic" in2="BackgroundImageFix" result="shape"/>
<feGaussianBlur stdDeviation="150" result="effect1_foregroundBlur"/>
</filter>
<filter id="filter5_f" x="-238.54" y="-725.302" width="1923.39" height="1923.39" filterUnits="userSpaceOnUse" color-interpolation-filters="sRGB">
<feFlood flood-opacity="0" result="BackgroundImageFix"/>
<feBlend mode="normal" in="SourceGraphic" in2="BackgroundImageFix" result="shape"/>
<feGaussianBlur stdDeviation="150" result="effect1_foregroundBlur"/>
</filter>
</defs>
</svg>
